HIERARCHY
ROOT RootJoint
{
    OFFSET   0.000000   0.000000   0.000000
    CHANNELS 6 Xposition Yposition Zposition Xrotation Yrotation Zrotation
    JOINT pelvis_lowerback
    {
        OFFSET   0.000000   0.093605   0.000000
        CHANNELS 3 Xrotation Yrotation Zrotation
        JOINT lowerback_torso
        {
            OFFSET   0.000000   0.100000   0.000000
            CHANNELS 3 Xrotation Yrotation Zrotation
            JOINT torso_head
            {
                OFFSET   0.000000   0.282350   0.000000
                CHANNELS 3 Xrotation Yrotation Zrotation
                End Site
                {
                    OFFSET   0.000000   0.192650   0.000000
                }
            }
            JOINT rTorso_Clavicle
            {
                OFFSET  -0.001000   0.157500   0.000000
                CHANNELS 3 Xrotation Yrotation Zrotation
                JOINT rShoulder
                {
                    OFFSET  -0.117647   0.000000   0.000000
                    CHANNELS 3 Xrotation Yrotation Zrotation
                    JOINT rElbow
                    {
                        OFFSET  -0.245000   0.000000   0.000000
                        CHANNELS 3 Xrotation Yrotation Zrotation
                        JOINT rWrist
                        {
                            OFFSET  -0.240000   0.000000   0.000000
                            CHANNELS 3 Xrotation Yrotation Zrotation
                            End Site
                            {
                                OFFSET  -0.116353  -0.002500   0.000000
                            }
                        }
                    }
                }
            }
            JOINT lTorso_Clavicle
            {
                OFFSET   0.001000   0.157500   0.000000
                CHANNELS 3 Xrotation Yrotation Zrotation
                JOINT lShoulder
                {
                    OFFSET   0.117647   0.000000   0.000000
                    CHANNELS 3 Xrotation Yrotation Zrotation
                    JOINT lElbow
                    {
                        OFFSET   0.245000   0.000000   0.000000
                        CHANNELS 3 Xrotation Yrotation Zrotation
                        JOINT lWrist
                        {
                            OFFSET   0.240000   0.000000   0.000000
                            CHANNELS 3 Xrotation Yrotation Zrotation
                            End Site
                            {
                                OFFSET   0.116353  -0.002500   0.000000
                            }
                        }
                    }
                }
            }
        }
    }
    JOINT rHip
    {
        OFFSET  -0.100000  -0.051395   0.000000
        CHANNELS 3 Xrotation Yrotation Zrotation
        JOINT rKnee
        {
            OFFSET   0.000000  -0.410000   0.000000
            CHANNELS 3 Xrotation Yrotation Zrotation
            JOINT rAnkle
            {
                OFFSET   0.000000  -0.390000   0.000000
                CHANNELS 3 Xrotation Yrotation Zrotation
                JOINT rToeJoint
                {
                    OFFSET   0.000000  -0.050000   0.130000
                    CHANNELS 3 Xrotation Yrotation Zrotation
                    End Site
                    {
                        OFFSET  -0.010000   0.002000   0.060000
                    }
                }
            }
        }
    }
    JOINT lHip
    {
        OFFSET   0.100000  -0.051395   0.000000
        CHANNELS 3 Xrotation Yrotation Zrotation
        JOINT lKnee
        {
            OFFSET   0.000000  -0.410000   0.000000
            CHANNELS 3 Xrotation Yrotation Zrotation
            JOINT lAnkle
            {
                OFFSET   0.000000  -0.390000   0.000000
                CHANNELS 3 Xrotation Yrotation Zrotation
                JOINT lToeJoint
                {
                    OFFSET   0.000000  -0.050000   0.130000
                    CHANNELS 3 Xrotation Yrotation Zrotation
                    End Site
                    {
                        OFFSET   0.010000   0.002000   0.060000
                    }
                }
            }
        }
    }
}
MOTION
Frames: 10
Frame Time:   0.008333
 -3.048020   0.917845   5.141461  -3.919490  19.659138   2.900965  16.643896  -2.177293  -2.799152   3.517142  -6.029488   0.041705   4.002036  -0.415544  -0.086140   2.883338   2.490729   0.048386  12.112748   7.411854  37.406007   0.004702  49.054715  -0.055399   3.881740   2.804438  -7.058035   0.353492 -11.686631  -6.130815   4.460096 -19.157909 -40.045739   0.002161 -46.663497   0.002324   2.771325  -2.007665   7.895697  -7.494993  15.452470 -12.014383  43.996037   0.002702  -0.022538  -5.475210   8.014774   1.841108  -1.083224   0.000552   0.001140  -3.352962 -17.087401   8.755622  21.847561   0.003970  -0.001684   0.545887 -18.944308  -5.194847 -29.609125   0.004266  -0.003154
 -3.055331   0.918073   5.140211  -3.647385  19.987887   3.009748  16.759859  -2.213356  -2.705263   3.564982  -5.994853  -0.121901   4.042244  -0.423242  -0.272460   2.959832   2.713634  -0.419259  12.361391   7.739291  36.714614   0.007039  50.279530  -0.064762   4.011456   2.636983  -6.835287   0.208038 -11.859853  -5.989293   4.407711 -19.026621 -39.913438   0.001970 -46.503127   0.002042   2.914720  -2.044930   8.022153  -7.922329  15.188319 -11.929208  42.268149   0.006056  -0.020547  -4.557114   8.015828   1.642523  -0.921841   0.000596   0.001177  -3.908919 -17.143877   8.966203  21.700818   0.003650  -0.001905   1.697814 -19.018568  -5.330705 -30.793136   0.005220  -0.006876
 -3.062839   0.918207   5.138966  -3.355549  20.296035   3.120597  16.872867  -2.235147  -2.632278   3.595633  -5.949198  -0.299216   4.078281  -0.433768  -0.446731   3.002770   2.956072  -0.918891  12.571015   8.066813  36.025415   0.008442  51.455918  -0.071388   4.164761   2.652148  -6.625146   0.068408 -12.030289  -5.839696   4.358280 -18.903887 -39.780260   0.001797 -46.349428   0.001814   3.050999  -2.052623   8.127364  -8.330687  14.922957 -11.831088  40.546371   0.009296  -0.018869  -3.695520   8.011362   1.456037  -0.714601   0.000587   0.001267  -4.477657 -17.172096   9.150087  21.539914   0.003418  -0.002129   2.834128 -19.074675  -5.430534 -31.954179   0.006373  -0.009781
 -3.070335   0.918815   5.137883  -2.996140  20.807246   3.051548  16.937910  -2.303146  -2.391302   3.617106  -5.939637  -0.406363   4.111047  -0.445881  -0.603396   3.030744   3.185201  -1.404499  12.761172   8.362311  35.346987   0.010135  52.547218  -0.075543   4.316030   2.678158  -6.497650  -0.064450 -12.215950  -5.759052   4.302435 -18.807455 -39.684591   0.001568 -46.206165   0.001660   3.183169  -2.056436   8.208464  -8.428982  14.720897 -11.653753  39.798380   0.008172  -0.018115  -3.293449   8.204490   1.487410  -5.118425   0.005993  -0.024475  -5.087804 -17.188629   9.467500  21.335203   0.003221  -0.002835   4.074574 -19.038034  -5.420748 -33.100185   0.008870  -0.014616
 -3.077913   0.919535   5.136728  -2.555829  21.216115   2.916077  16.983949  -2.303427  -2.181448   3.606612  -5.886727  -0.502730   4.136924  -0.454777  -0.742469   3.042254   3.425940  -1.882843  12.926614   8.652149  34.700864   0.011787  53.576695  -0.078028   4.465790   2.743664  -6.401660  -0.188693 -12.385271  -5.665955   4.249747 -18.718827 -39.593777   0.001333 -46.078002   0.001504   3.311218  -2.080731   8.279959  -8.498055  14.438095 -11.445529  38.783166   0.008511  -0.017569  -2.898076   8.319438   1.487813  -9.468830   0.014822  -0.036237  -5.745495 -17.158967   9.837227  21.053932   0.003325  -0.003699   5.438549 -18.886296  -5.284662 -30.044317  -0.006880   0.006413
 -3.085526   0.920398   5.135446  -2.076848  21.490690   2.799532  17.045117  -2.253926  -2.047974   3.584993  -5.792323  -0.626162   4.158107  -0.462063  -0.874467   3.036591   3.683062  -2.338786  13.066131   8.940085  34.087937   0.013555  54.547290  -0.079271   4.614935   2.849785  -6.337107  -0.307872 -12.536406  -5.561489   4.200907 -18.629309 -39.494797   0.001079 -45.957091   0.001329   3.433377  -2.103195   8.370607  -8.598802  14.155788 -11.268371  37.659048   0.009743  -0.016244  -2.518485   8.383279   1.468243 -13.402792   0.022670  -0.036854  -6.389755 -17.148575  10.162955  20.784977   0.003453  -0.003940   6.550126 -18.784228  -5.250282 -30.897558  -0.002802   0.001248
 -3.093165   0.921290   5.134085  -1.594641  21.692634   2.693981  17.128204  -2.185216  -1.950676   3.571205  -5.679262  -0.765276   4.179715  -0.468965  -1.001122   3.020920   3.944325  -2.780422  13.187405   9.219018  33.504276   0.015315  55.460457  -0.079447   4.762298   2.986958  -6.296308  -0.421327 -12.674746  -5.450768   4.154975 -18.542728 -39.394370   0.000817 -45.844184   0.001136   3.549839  -2.121675   8.471991  -8.727433  13.880515 -11.093400  36.510477   0.011187  -0.014538  -2.156120   8.420883   1.439222 -16.910794   0.028130  -0.032708  -7.021004 -17.137672  10.471878  20.494837   0.003661  -0.004019   7.620073 -18.662922  -5.196434 -31.223536  -0.001105  -0.000240
 -3.100698   0.922024   5.132778  -1.284547  21.789581   2.682714  17.348414  -2.105128  -1.865692   3.590286  -5.609541  -0.948637   4.062895  -0.511539  -1.125697   3.027810   4.250568  -3.272751  13.326549   9.655732  32.693863   0.017767  56.634041  -0.086503   4.867511   2.855789  -5.990920  -0.497587 -12.829141  -5.325458   4.172820 -18.410967 -39.236050   0.000366 -45.643653   0.000665   3.675958  -2.213300   8.578129  -8.959461  13.451682 -10.876491  35.758183   0.012296  -0.010968  -1.481872   8.240909   1.364353 -20.967932   0.035012  -0.010472  -7.413237 -16.797592  10.722789  20.150996   0.003611  -0.004766   8.298715 -18.191465  -5.223138 -30.395986  -0.004775   0.006332
 -3.108178   0.922621   5.131581  -1.027355  21.962186   2.698638  17.565810  -2.055842  -1.769427   3.614991  -5.555283  -1.135358   3.951739  -0.557718  -1.235711   3.007195   4.565995  -3.794138  13.438089  10.076472  31.886798   0.018724  57.751442  -0.090472   4.987092   2.842734  -5.725550  -0.561744 -12.987263  -5.215649   4.195571 -18.288401 -39.090272   0.000043 -45.446266   0.000374   3.794302  -2.249774   8.628060  -9.197737  13.014844 -10.647968  35.142559   0.012447  -0.008496  -0.847853   8.039143   1.287584 -24.704954   0.037339   0.005896  -7.762334 -16.432290  10.949602  19.799062   0.003483  -0.005673   8.938544 -17.697414  -5.236323 -29.481509  -0.008132   0.013215
 -3.115631   0.923087   5.130519  -0.807474  22.224986   2.731708  17.769379  -2.019826  -1.670038   3.636286  -5.511244  -1.316709   3.849121  -0.602058  -1.334222   2.976120   4.870523  -4.312276  13.536767  10.468071  31.107312   0.018990  58.797840  -0.091918   5.107006   2.862746  -5.528507  -0.621678 -13.145513  -5.123150   4.214642 -18.180942 -38.961500  -0.000105 -45.262564   0.000323   3.907851  -2.277498   8.646139  -9.414162  12.599039 -10.416606  34.601517   0.012020  -0.006994  -0.262973   7.850276   1.220841 -28.214420   0.037557   0.015187  -8.099927 -16.080339  11.156624  19.444638   0.003326  -0.006637   9.545858 -17.219952  -5.243738 -28.448638  -0.011174   0.020374
